Patient4_TMGait_0pt3_03_right_28_EMG.mot
version=1
nRows=23
nColumns=33
inDegrees=no
endheader
time	1LAddLong	2LGlutMax	3LGlutMed	4LIliopsoas	5LSemiMemb	6LBicFemLong	7LRecFem	8LVastMed	9LVastLat	10LGasMed	11LTibAnt	12lTibPost	13LPeroneusLong	14LSol	15LExtDigLong	16LFlexDigLong	17RAddLong	18RGlutMax	19RGlutMed	20RIliopsoas	21RSemiMemb	22RBicFemLong	23RRecFem	24RVastMed	25RVastLat	26RGasMed	27RTibAnt	28RTibPost	29RPeroneusLong	30RSol	31RExtDigLong	32RFlexDigLong
52.34	-0.001526	-0.041351	0.083466	0.023651	-0.001526	-0.33844	-0.04837	-0.008392	-0.13153	0.015564	-0.00473	0.055084	0.059509	-0.025635	-0.025024	-0.025635	0.014038	-0.011444	-0.31738	-0.00473	0.017853	-0.014496	0.10895	0.032654	0.027618	-0.012665	-0.17029	-0.005188	-0.14557	0.059814	0.006104	-0.007782
52.341	-0.002136	-0.0177	0.049591	0.007629	0.020447	-0.42801	0.071259	-0.011902	-0.084076	-0.008087	0.011292	-0.009155	0.1622	0.086212	-0.032349	-0.00412	0.045013	0.006409	-0.1445	-0.022583	0.007935	-0.002289	0.055237	0.047455	0.028076	-0.008698	0.25986	-0.006256	-0.18097	0.016022	0.009918	-0.010986
52.342	0.007782	0.047913	0.066528	-0.012207	0.037994	-0.30365	0.063477	-0.035248	0.083771	-0.038452	0.002747	0.027771	0.13077	0.21927	-0.022125	0.041046	0.054932	0.007324	-0.13947	-0.055847	-0.013733	-0.006256	0.073242	0.065002	0.02533	0.001831	0.40543	-0.003357	-0.13138	0.049133	0.004425	-0.014038
52.343	0.01297	0.007324	-0.032654	0.002136	0.022583	-0.15488	-0.078888	-0.010986	0.15243	-0.04776	-0.00061	0.29831	-0.10391	0.31433	-0.001678	0.010376	0.054474	-0.027313	-0.13794	-0.014191	-0.023499	-0.001526	0.027008	0.005646	0.018463	-0.000153	0.46081	-0.006561	-0.075226	0.029602	0.000458	-0.003357
52.344	0.014496	0.10071	-0.09552	-0.007477	0.022888	-0.096283	-0.098114	0.002136	0.19028	-0.054474	0.008545	-0.021515	-0.37201	0.15671	0.010681	-0.015564	0.030823	0.003967	0.024719	0.089722	-0.003204	-0.005646	0.02655	0.027618	0.011902	0.000305	0.33203	-0.003662	-0.001984	-0.024414	0.00061	-0.002747
52.345	0.033569	0.2066	-0.17593	-0.024414	0.024872	-0.044708	-0.12619	-0.006256	0.31723	0.001984	0.00946	-0.053101	-0.25299	0.33203	0.019379	-0.058136	-0.013275	-0.021057	0.18112	0.10162	-0.001373	-0.033875	0.041351	-0.018921	0.009003	0.001984	-0.001831	-0.005035	0.081024	-0.001831	0.002441	-0.008545
52.346	0.02121	0.28595	0.17761	-0.014496	0.00473	0.019226	-0.093689	-0.025177	0.37888	0.070496	0.006866	-0.023956	-0.10437	0.79239	0.051575	-0.004578	-0.02655	0.021057	0.14725	0.049591	-0.000153	-0.080719	0.044861	-0.041962	-0.000916	-0.004883	-0.13565	-0.00061	-0.015106	0.13107	0.004272	-0.016327
52.347	0.020905	0.23239	0.14969	0.014038	-0.011444	0.048981	-0.026703	-0.016937	0.21683	0.087891	-0.009155	0.030365	0.14999	0.66727	0.027618	0.035706	-0.018463	0.081635	-0.080872	-0.075531	0.002441	-0.097046	0.059814	-0.068359	-0.012817	-0.007782	-0.061493	-0.003357	-0.09491	0.20233	0.001831	-0.014191
52.348	0.010529	0.070801	0.11139	0.017853	-0.031433	0.060272	-0.064392	-0.016785	0.29373	0.2005	-0.003204	-0.022583	0.14923	0.27725	0.0177	-0.01236	0.000305	-0.031891	0.24628	-0.089417	0.018921	-0.10788	0.055084	-0.10544	-0.001068	-0.009766	-0.09903	-0.005493	-0.067291	0.1416	-0.002594	-0.012054
52.349	0.000153	0.074463	0.10468	-0.012817	-0.024261	0.027924	-0.031281	-0.004578	0.39566	0.18112	0.002899	-0.089722	-0.12314	-0.18463	0.001831	-0.023346	-0.030365	-0.014954	-0.22705	0.13321	0.013733	-0.075989	0.062714	-0.033417	-0.005341	-0.004425	0.059204	-0.004272	-0.026398	0.093384	-0.000153	-0.004578
52.35	-0.016327	0.10025	0.13458	-0.007782	-0.001068	-0.001984	-0.065155	0.012207	0.3154	0.14313	0.001373	0.10895	0.21118	-0.48569	-0.060272	-0.042572	-0.054474	0.005493	-0.41306	0.10925	0.004425	-0.056305	0.044861	-0.022888	0.024872	0.000153	0.059052	-0.007172	-0.017548	0.05188	0.000305	-0.002899
52.351	-0.018616	0.044708	0.066681	0.002136	-0.048218	0.036926	-0.031281	-0.002136	0.15961	0.15823	-0.016937	0.19775	0.39536	-0.26916	-0.010681	-0.016937	-0.074921	-0.005341	-0.16953	-0.077362	-0.010071	-0.009918	0.068512	0.006866	0.014191	0.005188	-0.064392	-0.003052	-0.007629	0.003204	0.006256	-0.006714
52.352	-0.005798	-0.05722	0.05249	0.030823	-0.026245	-0.029297	0.035858	-0.009155	-0.1767	0.23407	0.012512	-0.1561	0.023499	0.084534	0.02533	-0.014496	-0.086823	0.049896	-0.090942	0.001831	-0.009918	0.019531	0.053406	0.042267	0.013123	-0.016479	0.16556	-0.002289	-0.091553	-0.049133	0.005798	-0.009155
52.353	0.001678	-0.09201	-0.12924	0.018005	-0.027161	0.028839	0.051575	-0.002289	-0.47333	0.042572	0.031586	0.016632	-0.084076	-0.062408	0.048218	-0.048523	-0.10437	0.017853	-0.12558	0.023041	-0.012512	0.001984	0.063477	0.019226	0.001221	-0.010223	0.48157	-0.00351	-0.16739	-0.056	0.000458	-0.00351
52.354	0.009918	-0.059357	-0.24872	-0.005798	0.002747	-0.010071	0.035553	0.000763	-0.41321	-0.019684	0.014343	0.17685	-0.011749	0.14328	0.072327	-0.00885	-0.12009	0.025787	-0.1651	-0.053711	-0.020752	-0.030212	0.061646	0.072327	0.013275	-0.012512	0.85877	-0.006409	-0.17319	-0.088501	0.004578	-0.003967
52.355	0.00412	-0.061646	-0.11292	-0.006866	0.044556	0.11383	0.066986	0.016785	-0.25223	-0.030518	-0.009766	0.083771	0.41382	0.35812	0.017395	0.097504	-0.066833	0.01236	-0.10132	-0.11917	-0.016632	-0.046387	0.085297	0.013733	0.018463	-0.007935	0.69763	-0.005341	-0.16937	-0.14877	-0.000153	-0.004578
52.356	0.012054	-0.018005	-0.12375	-0.003662	0.079803	0.25864	0.033875	0.032349	-0.064697	-0.20142	-0.028992	-0.090637	-0.1712	0.54108	-0.073395	0.036163	-0.054321	-0.019379	0.1294	-0.087585	-0.031738	-0.063324	0.1088	-0.037537	-0.015869	-0.005493	0.12802	-0.004272	-0.13504	-0.19775	-0.000305	-0.005188
52.357	0.019989	0.008698	0.063782	0.001221	0.078888	-0.070496	0.002594	0.007935	0.12177	-0.33264	-0.015869	0.045471	-0.26093	-0.15106	-0.056458	0.021515	-0.046997	-0.052338	0.14542	-0.037537	-0.019989	-0.083313	0.10635	-0.067291	-0.009766	-0.009003	0.29251	-0.002594	-0.15823	-0.20783	-0.00351	-0.009308
52.358	0.014496	0.048828	-0.055084	-0.002899	0.045471	-0.24826	-0.018158	-0.009003	0.2211	-0.034943	-0.011292	-0.026398	-0.25925	-0.55924	-0.048065	-0.057678	-0.029602	-0.072327	0.10162	0.001526	0.004272	-0.077972	0.093536	-0.017242	-0.017548	-0.00946	0.032501	-0.004578	-0.098419	-0.22156	-0.000153	-0.006409
52.359	0.011902	0.097504	-0.089417	0.025177	0.030212	-0.215	-0.053558	-0.004272	0.18707	0.17181	-0.006866	-0.098114	-0.11261	-0.63294	-0.039978	-0.12909	0.000916	-0.054169	0.25055	-0.098114	0.014648	-0.039368	0.10407	-0.002594	0.000305	0.000916	-0.98297	-0.004425	0.059204	-0.15595	0.000305	0.009003
52.36	0.014496	0.1004	-0.12497	0.036774	0.022125	-0.28503	-0.062256	0.003967	0.016632	0.6366	-0.006256	-0.073547	-0.13565	-0.88287	-0.059204	-0.095062	0.033875	-0.074615	0.15045	-0.090027	0.020142	-0.044556	0.097198	-0.044403	-0.003815	0.014648	-0.6955	-0.005035	0.1915	-0.05249	0.000763	-0.00061
52.361	0.016632	0.10956	-0.013428	0.045624	0.002136	-0.21606	0.062714	-0.010223	-0.20508	0.81009	0.004578	-0.026093	-0.15152	-0.22522	-0.0354	-0.048981	0.033722	-0.025482	-0.05127	-0.019989	0.024872	-0.056152	0.056305	0.022125	0.002136	0.019836	-0.28564	-0.003204	0.1474	-0.058441	0.011749	-0.009003
52.362	-0.002899	0.084534	0.010223	0.015717	-0.015259	-0.13931	0.073547	-0.018768	-0.3122	0.6929	-0.004272	0.009155	-0.11719	0.23621	-0.024719	0.15137	0.029297	-0.056305	-0.22278	0.059052	0.018463	-0.028687	0.071564	-0.011749	0.001984	0.006104	-0.11169	-0.005188	0.10086	0.013733	-0.002136	-0.012817
